<mxfile host="app.diagrams.net" modified="2024-07-04T06:54:10.306Z" agent="Mozilla/5.0 (Windows NT 10.0; Win64; x64) AppleWebKit/537.36 (KHTML, like Gecko) Chrome/126.0.0.0 Safari/537.36" etag="DY3Ab3xP7NYidvfhh_53" version="24.6.4" type="github">
  <diagram id="C5RBs43oDa-KdzZeNtuy" name="Page-1">
    <mxGraphModel dx="1195" dy="622" grid="1" gridSize="10" guides="1" tooltips="1" connect="1" arrows="1" fold="1" page="1" pageScale="1" pageWidth="827" pageHeight="1169" math="0" shadow="0">
      <root>
        <mxCell id="WIyWlLk6GJQsqaUBKTNV-0" />
        <mxCell id="WIyWlLk6GJQsqaUBKTNV-1" parent="WIyWlLk6GJQsqaUBKTNV-0" />
        <mxCell id="TbPu24ocdNPtzhkzbBkC-27" style="edgeStyle=orthogonalEdgeStyle;rounded=0;orthogonalLoop=1;jettySize=auto;html=1;" edge="1" parent="WIyWlLk6GJQsqaUBKTNV-1" source="WIyWlLk6GJQsqaUBKTNV-3" target="TbPu24ocdNPtzhkzbBkC-15">
          <mxGeometry relative="1" as="geometry" />
        </mxCell>
        <mxCell id="TbPu24ocdNPtzhkzbBkC-28" value="" style="edgeStyle=orthogonalEdgeStyle;rounded=0;orthogonalLoop=1;jettySize=auto;html=1;" edge="1" parent="WIyWlLk6GJQsqaUBKTNV-1" source="WIyWlLk6GJQsqaUBKTNV-3" target="TbPu24ocdNPtzhkzbBkC-21">
          <mxGeometry relative="1" as="geometry" />
        </mxCell>
        <mxCell id="TbPu24ocdNPtzhkzbBkC-29" style="edgeStyle=orthogonalEdgeStyle;rounded=0;orthogonalLoop=1;jettySize=auto;html=1;" edge="1" parent="WIyWlLk6GJQsqaUBKTNV-1" source="WIyWlLk6GJQsqaUBKTNV-3" target="TbPu24ocdNPtzhkzbBkC-24">
          <mxGeometry relative="1" as="geometry" />
        </mxCell>
        <mxCell id="TbPu24ocdNPtzhkzbBkC-49" style="edgeStyle=orthogonalEdgeStyle;rounded=0;orthogonalLoop=1;jettySize=auto;html=1;entryX=0.5;entryY=0;entryDx=0;entryDy=0;" edge="1" parent="WIyWlLk6GJQsqaUBKTNV-1" source="WIyWlLk6GJQsqaUBKTNV-3" target="TbPu24ocdNPtzhkzbBkC-48">
          <mxGeometry relative="1" as="geometry" />
        </mxCell>
        <mxCell id="WIyWlLk6GJQsqaUBKTNV-3" value="&lt;div style=&quot;background-color:#292d3e;color:#a6accd&quot;&gt;&lt;pre style=&quot;font-family:&#39;宋体&#39;,monospace;font-size:9.0pt;&quot;&gt;新增配置表&lt;/pre&gt;&lt;/div&gt;" style="rounded=1;whiteSpace=wrap;html=1;fontSize=12;glass=0;strokeWidth=1;shadow=0;" parent="WIyWlLk6GJQsqaUBKTNV-1" vertex="1">
          <mxGeometry x="270" y="50" width="95" height="40" as="geometry" />
        </mxCell>
        <mxCell id="TbPu24ocdNPtzhkzbBkC-55" style="edgeStyle=orthogonalEdgeStyle;rounded=0;orthogonalLoop=1;jettySize=auto;html=1;entryX=0.5;entryY=0;entryDx=0;entryDy=0;" edge="1" parent="WIyWlLk6GJQsqaUBKTNV-1">
          <mxGeometry relative="1" as="geometry">
            <mxPoint x="76" y="161" as="sourcePoint" />
            <mxPoint x="314.5" y="375.9999999999999" as="targetPoint" />
            <Array as="points">
              <mxPoint x="76" y="376" />
            </Array>
          </mxGeometry>
        </mxCell>
        <mxCell id="TbPu24ocdNPtzhkzbBkC-15" value="搜索" style="whiteSpace=wrap;html=1;rounded=1;glass=0;strokeWidth=1;shadow=0;" vertex="1" parent="WIyWlLk6GJQsqaUBKTNV-1">
          <mxGeometry x="40" y="120" width="80" height="40" as="geometry" />
        </mxCell>
        <mxCell id="TbPu24ocdNPtzhkzbBkC-31" style="edgeStyle=orthogonalEdgeStyle;rounded=0;orthogonalLoop=1;jettySize=auto;html=1;entryX=0.5;entryY=0;entryDx=0;entryDy=0;" edge="1" parent="WIyWlLk6GJQsqaUBKTNV-1" source="TbPu24ocdNPtzhkzbBkC-34" target="TbPu24ocdNPtzhkzbBkC-30">
          <mxGeometry relative="1" as="geometry" />
        </mxCell>
        <mxCell id="TbPu24ocdNPtzhkzbBkC-57" style="edgeStyle=orthogonalEdgeStyle;rounded=0;orthogonalLoop=1;jettySize=auto;html=1;entryX=0.5;entryY=0;entryDx=0;entryDy=0;" edge="1" parent="WIyWlLk6GJQsqaUBKTNV-1">
          <mxGeometry relative="1" as="geometry">
            <mxPoint x="218" y="160" as="sourcePoint" />
            <mxPoint x="316.5" y="374.9999999999999" as="targetPoint" />
            <Array as="points">
              <mxPoint x="218" y="270" />
              <mxPoint x="316" y="270" />
            </Array>
          </mxGeometry>
        </mxCell>
        <mxCell id="TbPu24ocdNPtzhkzbBkC-21" value="重置" style="whiteSpace=wrap;html=1;rounded=1;glass=0;strokeWidth=1;shadow=0;" vertex="1" parent="WIyWlLk6GJQsqaUBKTNV-1">
          <mxGeometry x="180" y="120" width="80" height="40" as="geometry" />
        </mxCell>
        <mxCell id="TbPu24ocdNPtzhkzbBkC-64" value="" style="edgeStyle=orthogonalEdgeStyle;rounded=0;orthogonalLoop=1;jettySize=auto;html=1;" edge="1" parent="WIyWlLk6GJQsqaUBKTNV-1" source="TbPu24ocdNPtzhkzbBkC-24" target="TbPu24ocdNPtzhkzbBkC-63">
          <mxGeometry relative="1" as="geometry" />
        </mxCell>
        <mxCell id="TbPu24ocdNPtzhkzbBkC-24" value="导入" style="whiteSpace=wrap;html=1;rounded=1;glass=0;strokeWidth=1;shadow=0;" vertex="1" parent="WIyWlLk6GJQsqaUBKTNV-1">
          <mxGeometry x="520" y="120" width="80" height="40" as="geometry" />
        </mxCell>
        <mxCell id="TbPu24ocdNPtzhkzbBkC-30" value="刷新列表" style="rounded=1;whiteSpace=wrap;html=1;fontSize=12;glass=0;strokeWidth=1;shadow=0;" vertex="1" parent="WIyWlLk6GJQsqaUBKTNV-1">
          <mxGeometry x="120" y="520" width="80" height="40" as="geometry" />
        </mxCell>
        <mxCell id="TbPu24ocdNPtzhkzbBkC-37" value="提示错误信息" style="rounded=1;whiteSpace=wrap;html=1;" vertex="1" parent="WIyWlLk6GJQsqaUBKTNV-1">
          <mxGeometry x="374" y="510" width="80" height="40" as="geometry" />
        </mxCell>
        <mxCell id="TbPu24ocdNPtzhkzbBkC-39" value="否" style="text;html=1;align=center;verticalAlign=middle;whiteSpace=wrap;rounded=0;" vertex="1" parent="WIyWlLk6GJQsqaUBKTNV-1">
          <mxGeometry x="386" y="440" width="40" height="30" as="geometry" />
        </mxCell>
        <mxCell id="TbPu24ocdNPtzhkzbBkC-45" value="是" style="text;html=1;align=center;verticalAlign=middle;whiteSpace=wrap;rounded=0;" vertex="1" parent="WIyWlLk6GJQsqaUBKTNV-1">
          <mxGeometry x="170" y="400" width="60" height="30" as="geometry" />
        </mxCell>
        <mxCell id="TbPu24ocdNPtzhkzbBkC-48" value="编辑" style="whiteSpace=wrap;html=1;rounded=1;glass=0;strokeWidth=1;shadow=0;" vertex="1" parent="WIyWlLk6GJQsqaUBKTNV-1">
          <mxGeometry x="374" y="120" width="80" height="40" as="geometry" />
        </mxCell>
        <mxCell id="TbPu24ocdNPtzhkzbBkC-91" style="edgeStyle=none;rounded=0;orthogonalLoop=1;jettySize=auto;html=1;" edge="1" parent="WIyWlLk6GJQsqaUBKTNV-1" source="TbPu24ocdNPtzhkzbBkC-34" target="TbPu24ocdNPtzhkzbBkC-37">
          <mxGeometry relative="1" as="geometry">
            <Array as="points">
              <mxPoint x="319" y="530" />
            </Array>
          </mxGeometry>
        </mxCell>
        <mxCell id="TbPu24ocdNPtzhkzbBkC-34" value="调用接口&lt;div&gt;是否成功&lt;/div&gt;" style="rhombus;whiteSpace=wrap;html=1;" vertex="1" parent="WIyWlLk6GJQsqaUBKTNV-1">
          <mxGeometry x="278.5" y="375" width="80" height="80" as="geometry" />
        </mxCell>
        <mxCell id="TbPu24ocdNPtzhkzbBkC-56" value="携带搜索条件查询" style="text;html=1;align=center;verticalAlign=middle;whiteSpace=wrap;rounded=0;" vertex="1" parent="WIyWlLk6GJQsqaUBKTNV-1">
          <mxGeometry x="80" y="220" width="60" height="30" as="geometry" />
        </mxCell>
        <mxCell id="TbPu24ocdNPtzhkzbBkC-58" value="清空信息搜索" style="text;html=1;align=center;verticalAlign=middle;whiteSpace=wrap;rounded=0;" vertex="1" parent="WIyWlLk6GJQsqaUBKTNV-1">
          <mxGeometry x="220" y="220" width="60" height="30" as="geometry" />
        </mxCell>
        <mxCell id="TbPu24ocdNPtzhkzbBkC-60" value="携带当前行信息以及最新数据" style="text;html=1;align=center;verticalAlign=middle;whiteSpace=wrap;rounded=0;" vertex="1" parent="WIyWlLk6GJQsqaUBKTNV-1">
          <mxGeometry x="326" y="268" width="60" height="30" as="geometry" />
        </mxCell>
        <mxCell id="TbPu24ocdNPtzhkzbBkC-69" style="edgeStyle=orthogonalEdgeStyle;rounded=0;orthogonalLoop=1;jettySize=auto;html=1;entryX=1;entryY=0.5;entryDx=0;entryDy=0;" edge="1" parent="WIyWlLk6GJQsqaUBKTNV-1" source="TbPu24ocdNPtzhkzbBkC-63" target="TbPu24ocdNPtzhkzbBkC-37">
          <mxGeometry relative="1" as="geometry">
            <Array as="points">
              <mxPoint x="560" y="530" />
            </Array>
          </mxGeometry>
        </mxCell>
        <mxCell id="TbPu24ocdNPtzhkzbBkC-63" value="验证文件格式与大小" style="rhombus;whiteSpace=wrap;html=1;" vertex="1" parent="WIyWlLk6GJQsqaUBKTNV-1">
          <mxGeometry x="520" y="310" width="80" height="65" as="geometry" />
        </mxCell>
        <mxCell id="TbPu24ocdNPtzhkzbBkC-73" value="" style="edgeStyle=orthogonalEdgeStyle;rounded=0;orthogonalLoop=1;jettySize=auto;html=1;entryX=0.5;entryY=0;entryDx=0;entryDy=0;" edge="1" parent="WIyWlLk6GJQsqaUBKTNV-1" source="TbPu24ocdNPtzhkzbBkC-48" target="TbPu24ocdNPtzhkzbBkC-71">
          <mxGeometry relative="1" as="geometry">
            <mxPoint x="414" y="160" as="sourcePoint" />
            <mxPoint x="318" y="375" as="targetPoint" />
            <Array as="points" />
          </mxGeometry>
        </mxCell>
        <mxCell id="TbPu24ocdNPtzhkzbBkC-81" style="edgeStyle=orthogonalEdgeStyle;rounded=0;orthogonalLoop=1;jettySize=auto;html=1;entryX=0.5;entryY=0;entryDx=0;entryDy=0;" edge="1" parent="WIyWlLk6GJQsqaUBKTNV-1" source="TbPu24ocdNPtzhkzbBkC-71" target="TbPu24ocdNPtzhkzbBkC-37">
          <mxGeometry relative="1" as="geometry">
            <mxPoint x="480" y="420" as="targetPoint" />
          </mxGeometry>
        </mxCell>
        <mxCell id="TbPu24ocdNPtzhkzbBkC-89" style="edgeStyle=orthogonalEdgeStyle;rounded=0;orthogonalLoop=1;jettySize=auto;html=1;entryX=0.583;entryY=0.006;entryDx=0;entryDy=0;entryPerimeter=0;" edge="1" parent="WIyWlLk6GJQsqaUBKTNV-1" target="TbPu24ocdNPtzhkzbBkC-34">
          <mxGeometry relative="1" as="geometry">
            <mxPoint x="304" y="354.9999999999999" as="targetPoint" />
            <mxPoint x="386.3464820479794" y="241.55458058283705" as="sourcePoint" />
          </mxGeometry>
        </mxCell>
        <mxCell id="TbPu24ocdNPtzhkzbBkC-71" value="表单校验" style="rhombus;whiteSpace=wrap;html=1;" vertex="1" parent="WIyWlLk6GJQsqaUBKTNV-1">
          <mxGeometry x="386" y="213" width="56" height="55" as="geometry" />
        </mxCell>
        <mxCell id="TbPu24ocdNPtzhkzbBkC-82" value="否" style="text;html=1;align=center;verticalAlign=middle;whiteSpace=wrap;rounded=0;" vertex="1" parent="WIyWlLk6GJQsqaUBKTNV-1">
          <mxGeometry x="440" y="320" width="40" height="30" as="geometry" />
        </mxCell>
        <mxCell id="TbPu24ocdNPtzhkzbBkC-86" value="否" style="text;html=1;align=center;verticalAlign=middle;whiteSpace=wrap;rounded=0;" vertex="1" parent="WIyWlLk6GJQsqaUBKTNV-1">
          <mxGeometry x="540" y="440" width="40" height="30" as="geometry" />
        </mxCell>
        <mxCell id="TbPu24ocdNPtzhkzbBkC-92" style="edgeStyle=orthogonalEdgeStyle;rounded=0;orthogonalLoop=1;jettySize=auto;html=1;entryX=0.656;entryY=0.063;entryDx=0;entryDy=0;entryPerimeter=0;" edge="1" parent="WIyWlLk6GJQsqaUBKTNV-1" source="TbPu24ocdNPtzhkzbBkC-63" target="TbPu24ocdNPtzhkzbBkC-34">
          <mxGeometry relative="1" as="geometry">
            <Array as="points">
              <mxPoint x="439" y="343" />
              <mxPoint x="439" y="380" />
            </Array>
          </mxGeometry>
        </mxCell>
        <mxCell id="TbPu24ocdNPtzhkzbBkC-93" value="否" style="text;html=1;align=center;verticalAlign=middle;whiteSpace=wrap;rounded=0;" vertex="1" parent="WIyWlLk6GJQsqaUBKTNV-1">
          <mxGeometry x="318.5" y="480" width="40" height="30" as="geometry" />
        </mxCell>
      </root>
    </mxGraphModel>
  </diagram>
</mxfile>
